<svg xmlns="http://www.w3.org/2000/svg" width="157.611" height="107.547" viewBox="0 0 157.611 107.547"><defs><style>.a{fill:#fff;}</style></defs><path class="a" d="M121.174,107.441v.105H75.811c4.261-1.323,6.391-4,6.842-7.4,1.71-12.784-20.7-35.859-44.163-35.859H73.081l-19.5-48.282L59.79,0h4.471l34.2,82.82a124.261,124.261,0,0,0,6.122,13.386,25.03,25.03,0,0,0,2.7,3.9c.1.116.2.229.3.339a.15.15,0,0,1,.015.017q.557.617,1.13,1.137A23.712,23.712,0,0,0,121.174,107.441Z" transform="translate(-9.107)"/><path class="a" d="M139.97,0a31.631,31.631,0,0,0-8.79,4.5,14.78,14.78,0,0,0-4.41,5.16,12.1,12.1,0,0,0-1.02,2.82,56.825,56.825,0,0,0-.96,12.181V62.013L101.419,0H139.97Z" transform="translate(-24.037)"/><path class="a" d="M101.419,0l2.7,7.141,2.971,7.92,17.7,46.953Z" transform="translate(-24.044)"/><path class="a" d="M27.661,133.642H0a33.463,33.463,0,0,0,9.15-7.8c.42-.511.84-1.02,1.23-1.531.72-.96,1.411-1.949,2.1-2.97q.721-1.214,1.44-2.43a15.433,15.433,0,0,0,.81-1.56c.15-.27.3-.54.42-.81q.945-1.8,1.71-3.69a7.425,7.425,0,0,0,.3-.72c.15-.36.3-.72.48-1.111-1.02,12.391,1.65,20.7,10.021,22.621Z" transform="translate(0 -26.095)"/><path class="a" d="M194.212,106.116v26.361H154.43a58.2,58.2,0,0,0,19.717-3.239A34.614,34.614,0,0,0,181,125.811c6.808-4.434,11.157-11.04,13.206-19.672,0-.008,0-.013.006-.021Z" transform="translate(-36.599 -24.93)"/><path class="a" d="M134.627,12.673a1.2,1.2,0,0,0-.15.27Z" transform="translate(-31.894 -3.012)"/></svg>